<?xml version="1.0" encoding="UTF-8"?>
<svg id="Calque_1" data-name="Calque 1" xmlns="http://www.w3.org/2000/svg" viewBox="0 0 100.25 26.73">
  <defs>
    <style>
      .cls-1 {
        fill: none;
        stroke: #1d1d1b;
        stroke-miterlimit: 10;
        stroke-width: 2px;
      }

      .cls-2 {
        fill: #1d1d1b;
      }
    </style>
  </defs>
  <g>
    <path class="cls-2" d="M6.08,11.29v9.16H.74V2.04H6.08v7.41h4.36V2.04h5.34V20.45h-5.34V11.29H6.08Z"/>
    <path class="cls-2" d="M18.78,20.45V6.87c1.54,0,3.18-.12,4.92-.36v13.95h-4.92ZM21.27,1.58c1.53,0,2.29,.59,2.29,1.78s-.76,1.78-2.29,1.78-2.29-.59-2.29-1.78,.76-1.78,2.29-1.78Z"/>
    <path class="cls-2" d="M36.26,11.79h-3.37c.12-.53,.22-.92,.31-1.17,.13-.37,.19-.7,.19-1,0-.58-.21-.86-.62-.86-.31,0-.62,.38-.9,1.14-.29,.76-.43,1.56-.43,2.41v8.15h-4.92V6.85h.96c1.13,.01,2.46-.11,3.97-.35v2.24c.8-1.49,1.78-2.24,2.94-2.24,1.58,0,2.37,.87,2.37,2.62,0,.46-.08,.98-.23,1.58-.05,.24-.14,.61-.26,1.09Z"/>
    <path class="cls-2" d="M38.35,20.45V6.87c1.54,0,3.18-.12,4.92-.36v13.95h-4.92ZM40.85,1.58c1.53,0,2.29,.59,2.29,1.78s-.76,1.78-2.29,1.78-2.29-.59-2.29-1.78,.76-1.78,2.29-1.78Z"/>
    <path class="cls-2" d="M58.91,20.45h-4.92V10.47c0-1.02-.28-1.52-.85-1.52s-1.07,.4-1.5,1.21c-.42,.81-.63,1.76-.63,2.85v7.45h-4.92V6.83c1.69,0,3.33-.11,4.92-.34v2.55c1.22-1.69,2.72-2.54,4.48-2.54,2.28,0,3.43,1.16,3.43,3.48v10.47Z"/>
    <path class="cls-2" d="M70.54,6.99c2.29,.98,3.44,2.41,3.44,4.28,0,1.23-.58,2.28-1.73,3.16-1.15,.87-2.54,1.31-4.17,1.31-.63,0-1.48-.08-2.55-.24-.62,.36-.93,.72-.93,1.08,0,.49,.38,.74,1.15,.74,.2,0,.6-.02,1.2-.05,1.52-.1,2.63-.15,3.32-.15,3.27,0,4.91,1.24,4.91,3.72,0,3-2.71,4.51-8.13,4.51-4.04,0-6.06-.85-6.06-2.55,0-.98,.82-1.65,2.46-2-1.74-.46-2.62-1.22-2.62-2.28,0-1.32,1.04-2.49,3.12-3.49-1.83-.74-2.74-1.99-2.74-3.76,0-1.35,.55-2.48,1.66-3.39,1.11-.91,2.48-1.37,4.11-1.37,.56,0,1.29,.06,2.2,.18-.05-.31-.07-.56-.07-.74,0-1.78,.93-2.67,2.79-2.67,1.48,0,2.23,.63,2.23,1.88,0,.95-.45,1.43-1.34,1.43-.3,0-.65-.1-1.05-.3-.25-.13-.44-.19-.57-.2-.42-.03-.63,.28-.63,.93Zm-3.17,14.35c-2.29,0-3.44,.45-3.44,1.34s1.11,1.32,3.33,1.32c2.58,0,3.87-.49,3.87-1.48,0-.78-1.25-1.17-3.76-1.17Zm.13-13.52c-.92,0-1.38,1.14-1.38,3.43,0,2.1,.48,3.14,1.43,3.14,.87,0,1.31-.93,1.31-2.79,0-2.52-.45-3.78-1.36-3.78Z"/>
  </g>
  <path class="cls-1" d="M63.45,20.79s17.77,.64,17.77-7.09"/>
  <g>
    <path class="cls-2" d="M91.15,19.71h-2.84v-5.89c0-.51-.15-.77-.45-.77-.7,0-1.04,.74-1.04,2.22v4.44h-2.84v-5.77c0-.59-.13-.88-.4-.88-.71,0-1.06,.74-1.06,2.21v4.44h-2.84v-7.87c.96,0,1.91-.06,2.84-.19v1.35c.67-.9,1.49-1.35,2.47-1.35,.82,0,1.43,.42,1.83,1.27,.63-.86,1.42-1.28,2.37-1.28,1.31,0,1.96,.66,1.96,1.98v6.09Z"/>
    <path class="cls-2" d="M98.36,16.84l1.14,.33c-.12,1.81-1.19,2.72-3.21,2.72-2.62,0-3.92-1.3-3.92-3.91,0-1.27,.35-2.3,1.04-3.11s1.59-1.21,2.67-1.21c2.27,0,3.4,1.46,3.4,4.39h-4.14c0,2.05,.52,3.08,1.56,3.08,.98,0,1.46-.58,1.46-1.74,0-.16,0-.33-.02-.54Zm-3.02-1.68h1.7c0-1.83-.27-2.74-.82-2.74-.5,0-.78,.68-.84,2.03l-.03,.71Z"/>
  </g>
</svg>